HIERARCHY
ROOT Body Controller
{
	OFFSET	0.00	0.00	0.00
	CHANNELS 6 Xposition Yposition Zposition Zrotation Xrotation Yrotation
	JOINT Body Controller.001
	{
		OFFSET	 0.000000	-0.036916	-0.004642
		CHANNELS 3 Zrotation Xrotation Yrotation
		JOINT Body Controller.002
		{
			OFFSET	 0.000000	 0.000000	 0.076729
			CHANNELS 3 Zrotation Xrotation Yrotation
			JOINT Body Controller.003
			{
				OFFSET	 0.000000	 0.000000	 0.078516
				CHANNELS 3 Zrotation Xrotation Yrotation
				JOINT Body Controller.004
				{
					OFFSET	 0.000000	 0.000000	 0.042842
					CHANNELS 3 Zrotation Xrotation Yrotation
					End Site
					{
						OFFSET	 0.000000	 0.000000	 0.042842
					}
				}
			}
			JOINT Shoulder.L
			{
				OFFSET	 0.000000	 0.000000	 0.078516
				CHANNELS 3 Zrotation Xrotation Yrotation
				JOINT Upperarm.L
				{
					OFFSET	-0.018201	 0.028733	 0.072586
					CHANNELS 3 Zrotation Xrotation Yrotation
					JOINT Forearm.L
					{
						OFFSET	 0.000000	 0.000000	 0.097523
						CHANNELS 3 Zrotation Xrotation Yrotation
						JOINT Hand.L 1
						{
							OFFSET	 0.000000	 0.000000	 0.104201
							CHANNELS 3 Zrotation Xrotation Yrotation
							End Site
							{
								OFFSET	 0.000000	 0.000000	 0.104201
							}
						}
					}
				}
			}
			JOINT Shoulder.R
			{
				OFFSET	 0.000000	 0.000000	 0.078516
				CHANNELS 3 Zrotation Xrotation Yrotation
				JOINT Upperarm.R
				{
					OFFSET	 0.018201	 0.028733	 0.072586
					CHANNELS 3 Zrotation Xrotation Yrotation
					JOINT Forearm.R
					{
						OFFSET	-0.000000	 0.000000	 0.097523
						CHANNELS 3 Zrotation Xrotation Yrotation
						JOINT Hand.R 1
						{
							OFFSET	 0.000000	 0.000000	 0.104201
							CHANNELS 3 Zrotation Xrotation Yrotation
							End Site
							{
								OFFSET	 0.000000	 0.000000	 0.104201
							}
						}
					}
				}
			}
		}
	}
	JOINT Hip
	{
		OFFSET	 0.000000	 0.025198	-0.007161
		CHANNELS 3 Zrotation Xrotation Yrotation
		JOINT Upperleg.L
		{
			OFFSET	 0.037329	-0.035320	 0.000704
			CHANNELS 3 Zrotation Xrotation Yrotation
			JOINT Foreleg.L
			{
				OFFSET	-0.000000	 0.000000	 0.142509
				CHANNELS 3 Zrotation Xrotation Yrotation
				JOINT Foot.L 1
				{
					OFFSET	 0.000000	 0.000000	 0.128640
					CHANNELS 3 Zrotation Xrotation Yrotation
					End Site
					{
						OFFSET	 0.000000	 0.000000	 0.128640
					}
				}
				JOINT Heel.L
				{
					OFFSET	-0.003987	 0.000323	 0.137245
					CHANNELS 3 Zrotation Xrotation Yrotation
					End Site
					{
						OFFSET	-0.003987	 0.000323	 0.137245
					}
				}
			}
		}
		JOINT Upperleg.R
		{
			OFFSET	 0.037329	 0.035320	 0.000704
			CHANNELS 3 Zrotation Xrotation Yrotation
			JOINT Foreleg.R
			{
				OFFSET	 0.000000	 0.000000	 0.142509
				CHANNELS 3 Zrotation Xrotation Yrotation
				JOINT Foot.R 1
				{
					OFFSET	 0.000000	 0.000000	 0.128640
					CHANNELS 3 Zrotation Xrotation Yrotation
					End Site
					{
						OFFSET	 0.000000	 0.000000	 0.128640
					}
				}
				JOINT Heel.R
				{
					OFFSET	 0.003987	 0.000323	 0.137245
					CHANNELS 3 Zrotation Xrotation Yrotation
					End Site
					{
						OFFSET	 0.003987	 0.000323	 0.137245
					}
				}
			}
		}
	}
}
MOTION
Frames:    15
Frame Time: 0.01666667
-0.140154	 0.274478	 0.354931	-36.906690	-88.310780	 44.644530	-0.000029	-71.966360	 180.000000	-0.000009	 27.986970	 0.000000	 0.000000	 1.202067	 0.000000	 0.000000	-10.243090	-0.000000	 148.635400	-78.341930	-108.121200	-85.898450	 3.944959	-76.416900	-4.244410	-10.613230	 0.660170	-4.700142	 5.831371	-7.163933	-148.635400	-78.341930	 108.121200	 85.906630	 3.942842	 76.395580	 4.248344	-10.616570	-0.657686	 4.698251	 5.846062	 7.180809	-90.000010	-0.000009	-180.000000	-3.527971	-84.267420	 90.494970	 84.307140	 0.000007	-0.000134	 80.916900	 65.899680	 9.886982	-88.575780	 30.995550	-2.561642	-176.464300	-84.267460	-90.487710	-84.307180	-0.000020	-0.000068	-80.915600	 65.900150	-9.888393	 88.575770	 30.995540	 2.561643
-0.140154	 0.274478	 0.354931	-36.906690	-88.310780	 44.644530	-0.000029	-71.966360	 180.000000	-0.000009	 27.986970	 0.000000	 0.000000	 1.202067	 0.000000	 0.000000	-10.243090	-0.000000	 148.635400	-78.341930	-108.121200	-85.898440	 3.944962	-76.417150	-4.244365	-10.613610	 0.660236	-4.700166	 5.831696	-7.163713	-148.635400	-78.341930	 108.121200	 85.906700	 3.942822	 76.395540	 4.248363	-10.616780	-0.657684	 4.698233	 5.846347	 7.180828	-90.000010	-0.000009	-180.000000	-3.527178	-84.267350	 90.495750	 84.307150	 0.000009	-0.000122	 80.916960	 65.899600	 9.886916	-88.575780	 30.995550	-2.561642	-176.465200	-84.267390	-90.488630	-84.307170	-0.000014	-0.000054	-80.915620	 65.900060	-9.888384	 88.575770	 30.995540	 2.561643
-0.140154	 0.274478	 0.354931	-36.906690	-88.310780	 44.644530	-0.000029	-71.966360	 180.000000	-0.000009	 27.986970	 0.000000	 0.000000	 1.202067	 0.000000	 0.000000	-10.243090	-0.000000	 148.635400	-78.341930	-108.121200	-85.898420	 3.944952	-76.417240	-4.244376	-10.613740	 0.660256	-4.700156	 5.831802	-7.163643	-148.635400	-78.341930	 108.121200	 85.906730	 3.942810	 76.395520	 4.248356	-10.616830	-0.657689	 4.698241	 5.846440	 7.180842	-90.000010	-0.000009	-180.000000	-3.526898	-84.267390	 90.496030	 84.307140	 0.000005	-0.000122	 80.917000	 65.899570	 9.886868	-88.575780	 30.995550	-2.561642	-176.465500	-84.267420	-90.488930	-84.307180	-0.000015	-0.000060	-80.915630	 65.900040	-9.888369	 88.575770	 30.995540	 2.561643
-0.140154	 0.274478	 0.354931	-36.906690	-88.310780	 44.644530	-0.000029	-71.966360	 180.000000	-0.000009	 27.986970	 0.000000	 0.000000	 1.202067	 0.000000	 0.000000	-10.243090	-0.000000	 148.635400	-78.341930	-108.121200	-85.898430	 3.944953	-76.417400	-4.244335	-10.613960	 0.660279	-4.700177	 5.832003	-7.163483	-148.635400	-78.341930	 108.121200	 85.906810	 3.942792	 76.395480	 4.248358	-10.616840	-0.657675	 4.698247	 5.846540	 7.180842	-90.000010	-0.000009	-180.000000	-3.526295	-84.267390	 90.496610	 84.307140	 0.000009	-0.000133	 80.917050	 65.899520	 9.886811	-88.575780	 30.995550	-2.561642	-176.465800	-84.267460	-90.489290	-84.307170	-0.000022	-0.000070	-80.915630	 65.899990	-9.888368	 88.575770	 30.995540	 2.561643
-0.140154	 0.274478	 0.354931	-36.906690	-88.310780	 44.644530	-0.000029	-71.966360	 180.000000	-0.000009	 27.986970	 0.000000	 0.000000	 1.202067	 0.000000	 0.000000	-10.243090	-0.000000	 148.635400	-78.341930	-108.121200	-85.898450	 3.944959	-76.417400	-4.244328	-10.614020	 0.660286	-4.700171	 5.832087	-7.163477	-148.635400	-78.341930	 108.121200	 85.906820	 3.942790	 76.395490	 4.248369	-10.616890	-0.657701	 4.698229	 5.846588	 7.180845	-90.000010	-0.000009	-180.000000	-3.525982	-84.267420	 90.496920	 84.307160	 0.000007	-0.000130	 80.917090	 65.899490	 9.886769	-88.575780	 30.995550	-2.561642	-176.466200	-84.267390	-90.489630	-84.307180	-0.000020	-0.000051	-80.915640	 65.899990	-9.888350	 88.575770	 30.995540	 2.561643
-0.140154	 0.274478	 0.354931	-36.906690	-88.310780	 44.644530	-0.000029	-71.966360	 180.000000	-0.000009	 27.986970	 0.000000	 0.000000	 1.202067	 0.000000	 0.000000	-10.243090	-0.000000	 148.635400	-78.341930	-108.121200	-85.898480	 3.944947	-76.417420	-4.244337	-10.614120	 0.660299	-4.700166	 5.832214	-7.163458	-148.635400	-78.341930	 108.121200	 85.906880	 3.942776	 76.395460	 4.248371	-10.616950	-0.657687	 4.698229	 5.846713	 7.180850	-90.000010	-0.000009	-180.000000	-3.525368	-84.267350	 90.497540	 84.307140	 0.000008	-0.000144	 80.917110	 65.899460	 9.886749	-88.575780	 30.995550	-2.561642	-176.466600	-84.267420	-90.490070	-84.307180	-0.000024	-0.000058	-80.915650	 65.899930	-9.888351	 88.575770	 30.995540	 2.561643
-0.140154	 0.274478	 0.354931	-36.906690	-88.310780	 44.644530	-0.000029	-71.966360	 180.000000	-0.000009	 27.986970	 0.000000	 0.000000	 1.202067	 0.000000	 0.000000	-10.243090	-0.000000	 148.635400	-78.341930	-108.121200	-85.898510	 3.944943	-76.417430	-4.244323	-10.614150	 0.660297	-4.700177	 5.832276	-7.163445	-148.635400	-78.341930	 108.121200	 85.906880	 3.942768	 76.395460	 4.248378	-10.617020	-0.657709	 4.698230	 5.846784	 7.180868	-90.000010	-0.000009	-180.000000	-3.525160	-84.267350	 90.497730	 84.307140	 0.000006	-0.000136	 80.917140	 65.899440	 9.886721	-88.575780	 30.995550	-2.561642	-176.467000	-84.267460	-90.490440	-84.307180	-0.000014	-0.000059	-80.915660	 65.899890	-9.888341	 88.575770	 30.995540	 2.561643
-0.140154	 0.274478	 0.354931	-36.906690	-88.310780	 44.644530	-0.000029	-71.966360	 180.000000	-0.000009	 27.986970	 0.000000	 0.000000	 1.202067	 0.000000	 0.000000	-10.243090	-0.000000	 148.635400	-78.341930	-108.121200	-85.898550	 3.944927	-76.417450	-4.244328	-10.614320	 0.660318	-4.700173	 5.832479	-7.163419	-148.635400	-78.341930	 108.121200	 85.906940	 3.942758	 76.395430	 4.248379	-10.617060	-0.657701	 4.698221	 5.846897	 7.180870	-90.000010	-0.000009	-180.000000	-3.524642	-84.267350	 90.498240	 84.307150	 0.000011	-0.000135	 80.917180	 65.899380	 9.886676	-88.575780	 30.995550	-2.561642	-176.467300	-84.267420	-90.490730	-84.307170	-0.000018	-0.000071	-80.915660	 65.899840	-9.888336	 88.575770	 30.995540	 2.561643
-0.140154	 0.274478	 0.354931	-36.906690	-88.310780	 44.644530	-0.000029	-71.966360	 180.000000	-0.000009	 27.986970	 0.000000	 0.000000	 1.202067	 0.000000	 0.000000	-10.243090	-0.000000	 148.635400	-78.341930	-108.121200	-85.898570	 3.944916	-76.417470	-4.244330	-10.614370	 0.660332	-4.700169	 5.832556	-7.163408	-148.635400	-78.341930	 108.121200	 85.906970	 3.942750	 76.395420	 4.248391	-10.617090	-0.657682	 4.698216	 5.846951	 7.180867	-90.000010	-0.000009	-180.000000	-3.524448	-84.267390	 90.498420	 84.307150	 0.000014	-0.000122	 80.917220	 65.899350	 9.886626	-88.575780	 30.995550	-2.561642	-176.467700	-84.267390	-90.491130	-84.307170	-0.000013	-0.000053	-80.915660	 65.899830	-9.888330	 88.575770	 30.995540	 2.561643
-0.140154	 0.274478	 0.354931	-36.906690	-88.310780	 44.644530	-0.000029	-71.966360	 180.000000	-0.000009	 27.986970	 0.000000	 0.000000	 1.202067	 0.000000	 0.000000	-10.243090	-0.000000	 148.635400	-78.341930	-108.121200	-85.898640	 3.944904	-76.417470	-4.244324	-10.614470	 0.660334	-4.700170	 5.832724	-7.163380	-148.635400	-78.341930	 108.121200	 85.907010	 3.942749	 76.395390	 4.248375	-10.617190	-0.657703	 4.698222	 5.847094	 7.180887	-90.000010	-0.000009	-180.000000	-3.523743	-84.267390	 90.499120	 84.307140	-0.000000	-0.000138	 80.917300	 65.899290	 9.886554	-88.575780	 30.995550	-2.561642	-176.468100	-84.267460	-90.491560	-84.307170	-0.000017	-0.000070	-80.915700	 65.899770	-9.888298	 88.575770	 30.995540	 2.561643
-0.140154	 0.274478	 0.354931	-36.906690	-88.310780	 44.644530	-0.000029	-71.966360	 180.000000	-0.000009	 27.986970	 0.000000	 0.000000	 1.202067	 0.000000	 0.000000	-10.243090	-0.000000	 148.635400	-78.341930	-108.121200	-85.898670	 3.944891	-76.417480	-4.244326	-10.614540	 0.660343	-4.700172	 5.832808	-7.163367	-148.635400	-78.341930	 108.121200	 85.907040	 3.942739	 76.395390	 4.248381	-10.617200	-0.657713	 4.698220	 5.847126	 7.180892	-90.000010	-0.000009	-180.000000	-3.523466	-84.267320	 90.499390	 84.307140	 0.000006	-0.000131	 80.917310	 65.899270	 9.886537	-88.575780	 30.995550	-2.561642	-176.468300	-84.267460	-90.491750	-84.307160	-0.000019	-0.000067	-80.915700	 65.899750	-9.888306	 88.575770	 30.995540	 2.561643
-0.140154	 0.274478	 0.354931	-36.906690	-88.310780	 44.644530	-0.000029	-71.966360	 180.000000	-0.000009	 27.986970	 0.000000	 0.000000	 1.202067	 0.000000	 0.000000	-10.243090	-0.000000	 148.635400	-78.341930	-108.121200	-85.898710	 3.944875	-76.417500	-4.244332	-10.614680	 0.660346	-4.700167	 5.832996	-7.163323	-148.635400	-78.341930	 108.121200	 85.907050	 3.942730	 76.395360	 4.248385	-10.617340	-0.657706	 4.698220	 5.847300	 7.180903	-90.000010	-0.000009	-180.000000	-3.522894	-84.267390	 90.499950	 84.307130	 0.000002	-0.000125	 80.917390	 65.899220	 9.886460	-88.575780	 30.995550	-2.561642	-176.468800	-84.267460	-90.492290	-84.307170	-0.000023	-0.000057	-80.915700	 65.899720	-9.888288	 88.575770	 30.995540	 2.561643
-0.140154	 0.274478	 0.354931	-36.906690	-88.310780	 44.644530	-0.000029	-71.966360	 180.000000	-0.000009	 27.986970	 0.000000	 0.000000	 1.202067	 0.000000	 0.000000	-10.243090	-0.000000	 148.635400	-78.341930	-108.121200	-85.898740	 3.944880	-76.417520	-4.244323	-10.614800	 0.660360	-4.700164	 5.833137	-7.163309	-148.635400	-78.341930	 108.121200	 85.907070	 3.942720	 76.395360	 4.248404	-10.617380	-0.657720	 4.698204	 5.847362	 7.180915	-90.000010	-0.000009	-180.000000	-3.522565	-84.267320	 90.500270	 84.307130	 0.000015	-0.000141	 80.917390	 65.899190	 9.886465	-88.575780	 30.995550	-2.561642	-176.469000	-84.267420	-90.492520	-84.307170	-0.000020	-0.000064	-80.915700	 65.899680	-9.888291	 88.575770	 30.995540	 2.561643
-0.140154	 0.274478	 0.354931	-36.906690	-88.310780	 44.644530	-0.000029	-71.966360	 180.000000	-0.000009	 27.986970	 0.000000	 0.000000	 1.202067	 0.000000	 0.000000	-10.243090	-0.000000	 148.635400	-78.341930	-108.121200	-85.898780	 3.944859	-76.417530	-4.244329	-10.614930	 0.660368	-4.700164	 5.833313	-7.163276	-148.635400	-78.341930	 108.121200	 85.907120	 3.942712	 76.395320	 4.248398	-10.617450	-0.657713	 4.698215	 5.847478	 7.180918	-90.000010	-0.000009	-180.000000	-3.522099	-84.267390	 90.500720	 84.307130	 0.000011	-0.000131	 80.917450	 65.899140	 9.886389	-88.575780	 30.995550	-2.561642	-176.469500	-84.267420	-90.493000	-84.307170	-0.000018	-0.000063	-80.915700	 65.899630	-9.888284	 88.575770	 30.995540	 2.561643
-0.140154	 0.274478	 0.354931	-36.906690	-88.310780	 44.644530	-0.000029	-71.966360	 180.000000	-0.000009	 27.986970	 0.000000	 0.000000	 1.202067	 0.000000	 0.000000	-10.243090	-0.000000	 148.635400	-78.341930	-108.121200	-85.898830	 3.944850	-76.417550	-4.244319	-10.615020	 0.660393	-4.700167	 5.833450	-7.163270	-148.635400	-78.341930	 108.121200	 85.907130	 3.942714	 76.395320	 4.248407	-10.617520	-0.657714	 4.698195	 5.847558	 7.180921	-90.000010	-0.000009	-180.000000	-3.521806	-84.267350	 90.501010	 84.307110	 0.000012	-0.000130	 80.917470	 65.899110	 9.886386	-88.575780	 30.995550	-2.561642	-176.469900	-84.267390	-90.493360	-84.307170	-0.000019	-0.000049	-80.915710	 65.899600	-9.888284	 88.575770	 30.995540	 2.561643
